name C:\Users\u0150099\Documents\master_thesis\3dpredictsim\Results\debug\Fal_s1_mtj_sc_cspx10_oy_TrackAnkleQSubtQ_MTPm_k1_d01_MTJm_nl_MG_exp_table_d01_PF_Natali2010_ls146_FDB_ig21.mot
datacolumns 130
datarows 4
range 0.00000000 0.03236144
endheader
time	pelvis_tilt	pelvis_list	pelvis_rotation	pelvis_tx	pelvis_ty	pelvis_tz	hip_flexion_l	hip_adduction_l	hip_rotation_l	hip_flexion_r	hip_adduction_r	hip_rotation_r	knee_angle_l	knee_angle_r	ankle_angle_l	ankle_angle_r	subtalar_angle_l	subtalar_angle_r	mtj_angle_l	mtj_angle_r	mtp_angle_l	mtp_angle_r	lumbar_extension	lumbar_bending	lumbar_rotation	arm_flex_l	arm_add_l	arm_rot_l	arm_flex_r	arm_add_r	arm_rot_r	elbow_flex_l	elbow_flex_r	pro_sup_l	pro_sup_r	glut_med1_l/activation	glut_med2_l/activation	glut_med3_l/activation	glut_min1_l/activation	glut_min2_l/activation	glut_min3_l/activation	semimem_l/activation	semiten_l/activation	bifemlh_l/activation	bifemsh_l/activation	sar_l/activation	add_long_l/activation	add_brev_l/activation	add_mag1_l/activation	add_mag2_l/activation	add_mag3_l/activation	tfl_l/activation	pect_l/activation	grac_l/activation	glut_max1_l/activation	glut_max2_l/activation	glut_max3_l/activation	iliacus_l/activation	psoas_l/activation	quad_fem_l/activation	gem_l/activation	peri_l/activation	rect_fem_l/activation	vas_med_l/activation	vas_int_l/activation	vas_lat_l/activation	med_gas_l/activation	lat_gas_l/activation	soleus_l/activation	tib_post_l/activation	flex_dig_l/activation	flex_hal_l/activation	tib_ant_l/activation	per_brev_l/activation	per_long_l/activation	per_tert_l/activation	ext_dig_l/activation	ext_hal_l/activation	FDB_l/activation	ercspn_l/activation	intobl_l/activation	extobl_l/activation	glut_med1_r/activation	glut_med2_r/activation	glut_med3_r/activation	glut_min1_r/activation	glut_min2_r/activation	glut_min3_r/activation	semimem_r/activation	semiten_r/activation	bifemlh_r/activation	bifemsh_r/activation	sar_r/activation	add_long_r/activation	add_brev_r/activation	add_mag1_r/activation	add_mag2_r/activation	add_mag3_r/activation	tfl_r/activation	pect_r/activation	grac_r/activation	glut_max1_r/activation	glut_max2_r/activation	glut_max3_r/activation	iliacus_r/activation	psoas_r/activation	quad_fem_r/activation	gem_r/activation	peri_r/activation	rect_fem_r/activation	vas_med_r/activation	vas_int_r/activation	vas_lat_r/activation	med_gas_r/activation	lat_gas_r/activation	soleus_r/activation	tib_post_r/activation	flex_dig_r/activation	flex_hal_r/activation	tib_ant_r/activation	per_brev_r/activation	per_long_r/activation	per_tert_r/activation	ext_dig_r/activation	ext_hal_r/activation	FDB_r/activation	ercspn_r/activation	intobl_r/activation	extobl_r/activation	
          0.00000000	         -2.92419456	         -1.23497637	          4.13967653	          0.00000000	          0.91160288	         -0.00410906	        -14.34610964	          1.89666480	          6.51946507	         26.72387429	          2.57441918	         -2.94616206	        -16.06470028	         -7.22962116	          3.19216522	          2.48460461	          2.75079078	         -0.95912441	         -2.90382411	         -1.41950590	         26.50648902	          6.97738073	         -2.72171697	          0.25858442	         -1.90367769	          3.00128979	        -14.35156876	         19.37357136	         -7.49240563	        -13.46949961	          3.95598674	         37.40224315	         27.27414750	         86.51662706	         86.51662706	          0.29137744	          0.07037935	          0.05000039	          0.38088816	          0.20801313	          0.08840485	          0.05000071	          0.05000008	          0.05000007	          0.05000006	          0.09686664	          0.05000005	          0.05000006	          0.05000013	          0.05000047	          0.05000041	          0.60562596	          0.05000020	          0.05000013	          0.05000160	          0.05000076	          0.05000044	          0.35813828	          0.75280638	          0.05000004	          0.05000013	          0.05000002	          0.41395777	          0.15404738	          0.16329737	          0.14009715	          0.25695985	          0.44392398	          0.23051962	          0.64486470	          0.41186574	          0.66602997	          0.05000000	          0.05000005	          0.47358830	          0.05000002	          0.05000000	          0.10847010	          0.68672740	          0.05000000	          0.05000003	          0.05069938	          0.16385969	          0.05000004	          0.05898925	          0.05000003	          0.05000005	          0.05000015	          0.33877040	          0.06959479	          0.21123278	          0.06959473	          0.05898899	          0.09451468	          0.11769593	          0.13827096	          0.07690289	          0.12309298	          0.05000020	          0.05898772	          0.10378150	          0.05544099	          0.08698370	          0.10373659	          0.05000009	          0.05000017	          0.26737854	          0.05043244	          0.05000134	          0.05000000	          0.05000001	          0.05000001	          0.05000001	          0.05898928	          0.05898928	          0.05689401	          0.07304148	          0.05897925	          0.06974180	          0.30944235	          0.05000012	          0.19165945	          0.17650182	          0.53078394	          0.05778145	          0.27439209	          0.05000000	          0.11100225	          0.13755610	
          0.01078715	         -2.92864090	         -1.42229537	          4.38881691	          0.01723634	          0.91056651	         -0.00375362	        -14.62779224	          1.48677557	          6.39946873	         26.40707371	          2.95377862	         -2.81873505	        -17.08890008	         -7.66314836	          2.15169718	          1.85996953	          3.24834186	         -1.23889236	         -4.33116529	         -1.04692767	         30.03617153	          5.97199495	         -2.53684909	          0.55962298	         -2.01771933	          2.58191420	        -14.29356676	         19.26908310	         -8.20791868	        -13.45033495	          3.59359095	         38.59778287	         26.70605678	         86.51662706	         86.51662706	          0.24697493	          0.05965436	          0.05000001	          0.32284524	          0.17631434	          0.07493298	          0.05000233	          0.05000010	          0.05000007	          0.05000032	          0.08210533	          0.11420864	          0.05000052	          0.05000018	          0.05000055	          0.05000042	          0.63071697	          0.05319274	          0.05000013	          0.05000018	          0.05000013	          0.05000013	          0.30356214	          0.67691795	          0.05000001	          0.05000008	          0.05000013	          0.41187202	          0.13057316	          0.18408973	          0.17256587	          0.21780213	          0.37627509	          0.19539108	          0.57121091	          0.34910399	          0.57587234	          0.05000000	          0.05000001	          0.40739332	          0.05000002	          0.05000000	          0.09194051	          0.58207805	          0.05000000	          0.06959472	          0.06691916	          0.14886024	          0.05898924	          0.05000004	          0.05898931	          0.05898929	          0.05000120	          0.29218044	          0.05898935	          0.17904335	          0.05898930	          0.05000012	          0.09686898	          0.09976057	          0.16011621	          0.18674824	          0.16115298	          0.05000023	          0.05000159	          0.08796642	          0.05000033	          0.07719114	          0.16722604	          0.05001508	          0.05431343	          0.50192497	          0.11428472	          0.05000013	          0.06959478	          0.05070236	          0.06959450	          0.06959452	          0.05000000	          0.05000000	          0.05000000	          0.06191080	          0.05000008	          0.05911421	          0.31239950	          0.05000011	          0.17621833	          0.26794587	          0.58033959	          0.05899261	          0.23257790	          0.05000000	          0.09408679	          0.11659414	
          0.02157429	         -2.93017647	         -1.62237603	          4.62255207	          0.03473440	          0.90954632	         -0.00337763	        -14.84086276	          1.05692466	          6.25128602	         26.08814811	          3.30905150	         -2.65181302	        -18.16286309	         -8.74559170	          0.87471550	          0.95412825	          3.74331544	         -1.60547425	         -5.87592717	         -0.75444109	         33.85802645	          4.98384857	         -2.34136193	          0.87660005	         -2.12233754	          2.10486804	        -14.22461979	         19.10904239	         -8.90630069	        -13.45833798	          3.48892715	         39.76489654	         26.05509516	         86.51662706	         86.51662706	          0.22143901	          0.05056374	          0.05000007	          0.27364737	          0.14944609	          0.06351407	          0.05000048	          0.05000012	          0.05000022	          0.05000001	          0.06959347	          0.19545713	          0.08875400	          0.05898933	          0.05898937	          0.05898980	          0.63293911	          0.06959543	          0.05000251	          0.05000865	          0.05019829	          0.05898919	          0.25730277	          0.66215851	          0.05898925	          0.05000066	          0.05000002	          0.34910748	          0.15907149	          0.15907153	          0.15907136	          0.18461159	          0.31893510	          0.16561573	          0.48416495	          0.29590459	          0.48811607	          0.05000000	          0.05000001	          0.34531139	          0.05000000	          0.05000000	          0.07792985	          0.49337605	          0.05000000	          0.05898929	          0.06434501	          0.31383677	          0.05000001	          0.19568011	          0.05000004	          0.05000003	          0.05000003	          0.24768044	          0.05000006	          0.16673190	          0.05000001	          0.05019861	          0.08210738	          0.20537790	          0.17538347	          0.15829016	          0.20958430	          0.05000013	          0.06960218	          0.07456137	          0.05000007	          0.19536648	          0.23073318	          0.06018583	          0.05879431	          0.42543769	          0.09686910	          0.09686762	          0.05898934	          0.05898931	          0.05898931	          0.05898930	          0.06959470	          0.06959474	          0.06834544	          0.05247631	          0.06959484	          0.05898939	          0.48088640	          0.28937981	          0.14936469	          0.22711402	          0.55169172	          0.05000282	          0.19713571	          0.05000000	          0.07974905	          0.09882653	
          0.03236144	         -2.93015039	         -1.84030568	          4.83942942	          0.05236217	          0.90860834	         -0.00298417	        -14.94638406	          0.60982400	          6.08117283	         25.72337104	          3.64390545	         -2.45433205	        -19.32156699	         -9.93016887	         -0.71637548	         -0.22238171	          4.19886840	         -2.01775296	         -7.49826496	         -0.24105466	         37.93775337	          4.25516704	         -2.14442546	          1.21414812	         -2.21823150	          1.59286327	        -14.14957252	         18.93027104	         -9.56078319	        -13.48899345	          3.61779806	         40.89275699	         25.31179780	         86.51662706	         86.51662706	          0.18769431	          0.05000000	          0.05000000	          0.37095203	          0.12667228	          0.05383527	          0.05000087	          0.05000002	          0.05000001	          0.05898907	          0.05898940	          0.27721946	          0.07522893	          0.05000006	          0.05000016	          0.05000047	          0.63981738	          0.05898997	          0.05000004	          0.05000008	          0.05000004	          0.05000003	          0.22423571	          0.70257705	          0.05000000	          0.05000001	          0.05000001	          0.29590754	          0.13483083	          0.13483087	          0.13483073	          0.15647891	          0.27033307	          0.14037780	          0.41038378	          0.25081215	          0.41373281	          0.05000000	          0.05003954	          0.29268992	          0.05000016	          0.05000000	          0.06605424	          0.41819122	          0.07908803	          0.05000000	          0.05453957	          0.43392753	          0.33246027	          0.36346782	          0.26521394	          0.25022158	          0.22455832	          0.20993679	          0.16641789	          0.14879994	          0.11428012	          0.05898930	          0.06959517	          0.17408069	          0.14865709	          0.13416863	          0.24754630	          0.05000007	          0.05899569	          0.23244552	          0.28167704	          0.28648822	          0.28524030	          0.05101424	          0.05000013	          0.36060590	          0.08210740	          0.08210626	          0.05000004	          0.05000002	          0.05000002	          0.05000001	          0.05898927	          0.05898930	          0.05793038	          0.10466064	          0.05898939	          0.05000009	          0.59544273	          0.24528167	          0.18948819	          0.55042371	          0.73922573	          0.44740075	          0.50320283	          0.06898307	          0.08210686	          0.08376651	
